<svg xmlns="http://www.w3.org/2000/svg" width="1200" height="630" viewBox="0 0 1200 630" role="img" aria-labelledby="title desc">
  <title id="title">SAP SuccessFactors Pay Transparency Readiness Checker</title>
  <desc id="desc">A social preview card for an EU Pay Transparency Directive readiness prototype for SAP SuccessFactors teams.</desc>
  <defs>
    <linearGradient id="bg" x1="0" y1="0" x2="1" y2="1">
      <stop offset="0" stop-color="#081018"/>
      <stop offset="0.52" stop-color="#111827"/>
      <stop offset="1" stop-color="#0d1f1c"/>
    </linearGradient>
    <linearGradient id="gold" x1="0" y1="0" x2="1" y2="1">
      <stop offset="0" stop-color="#f5d779"/>
      <stop offset="1" stop-color="#c8a84e"/>
    </linearGradient>
    <filter id="softShadow" x="-20%" y="-20%" width="140%" height="140%">
      <feDropShadow dx="0" dy="20" stdDeviation="24" flood-color="#000000" flood-opacity="0.35"/>
    </filter>
  </defs>

  <rect width="1200" height="630" fill="url(#bg)"/>
  <rect x="34" y="34" width="1132" height="562" rx="28" fill="none" stroke="#2b3440" stroke-width="2"/>
  <path d="M34 486 C210 438 312 512 456 462 C612 408 676 294 840 322 C970 344 1036 438 1166 396 L1166 596 L34 596 Z" fill="#0f3a32" opacity="0.42"/>
  <path d="M76 500 C234 452 330 526 466 482 C626 430 692 326 850 352 C976 372 1044 466 1126 438" fill="none" stroke="#2dd4bf" stroke-width="3" opacity="0.55"/>

  <g transform="translate(78 72)">
    <rect x="0" y="0" width="220" height="42" rx="21" fill="#c8a84e" opacity="0.14" stroke="#c8a84e" stroke-opacity="0.55"/>
    <text x="22" y="27" fill="#f5d779" font-family="Inter, Segoe UI, Arial, sans-serif" font-size="16" font-weight="700">EU PAY TRANSPARENCY</text>
  </g>

  <g transform="translate(78 148)">
    <text x="0" y="0" fill="#ffffff" font-family="Inter, Segoe UI, Arial, sans-serif" font-size="58" font-weight="800">SAP SuccessFactors</text>
    <text x="0" y="70" fill="#ffffff" font-family="Inter, Segoe UI, Arial, sans-serif" font-size="58" font-weight="800">Readiness Checker</text>
    <text x="0" y="128" fill="#cbd5e1" font-family="Inter, Segoe UI, Arial, sans-serif" font-size="26" font-weight="500">Pay ranges, job architecture, compensation data,</text>
    <text x="0" y="164" fill="#cbd5e1" font-family="Inter, Segoe UI, Arial, sans-serif" font-size="26" font-weight="500">Article 9 reporting and evidence workflows.</text>
  </g>

  <g transform="translate(78 398)">
    <rect x="0" y="0" width="176" height="62" rx="12" fill="#ffffff" opacity="0.08" stroke="#344054"/>
    <text x="22" y="25" fill="#94a3b8" font-family="Inter, Segoe UI, Arial, sans-serif" font-size="14" font-weight="700">FOCUS</text>
    <text x="22" y="47" fill="#ffffff" font-family="Inter, Segoe UI, Arial, sans-serif" font-size="20" font-weight="700">HRIS readiness</text>

    <rect x="196" y="0" width="188" height="62" rx="12" fill="#ffffff" opacity="0.08" stroke="#344054"/>
    <text x="218" y="25" fill="#94a3b8" font-family="Inter, Segoe UI, Arial, sans-serif" font-size="14" font-weight="700">SYSTEM</text>
    <text x="218" y="47" fill="#ffffff" font-family="Inter, Segoe UI, Arial, sans-serif" font-size="20" font-weight="700">SuccessFactors</text>

    <rect x="404" y="0" width="188" height="62" rx="12" fill="#ffffff" opacity="0.08" stroke="#344054"/>
    <text x="426" y="25" fill="#94a3b8" font-family="Inter, Segoe UI, Arial, sans-serif" font-size="14" font-weight="700">MODE</text>
    <text x="426" y="47" fill="#ffffff" font-family="Inter, Segoe UI, Arial, sans-serif" font-size="20" font-weight="700">Prototype</text>
  </g>

  <g transform="translate(796 116)" filter="url(#softShadow)">
    <rect x="0" y="0" width="304" height="350" rx="24" fill="#f8fafc"/>
    <rect x="24" y="26" width="256" height="22" rx="11" fill="#d7dee8"/>
    <rect x="24" y="72" width="118" height="118" rx="59" fill="#ecfdf5"/>
    <path d="M83 95 A36 36 0 1 1 82.9 95" fill="none" stroke="#d6e3dc" stroke-width="12"/>
    <path d="M83 95 A36 36 0 1 1 55 153" fill="none" stroke="#16a34a" stroke-width="12" stroke-linecap="round"/>
    <text x="62" y="151" fill="#111827" font-family="Inter, Segoe UI, Arial, sans-serif" font-size="28" font-weight="800">72%</text>

    <rect x="162" y="82" width="98" height="18" rx="9" fill="#c8a84e"/>
    <rect x="162" y="116" width="76" height="12" rx="6" fill="#cbd5e1"/>
    <rect x="162" y="140" width="102" height="12" rx="6" fill="#cbd5e1"/>
    <rect x="24" y="224" width="256" height="16" rx="8" fill="#e2e8f0"/>
    <rect x="24" y="258" width="210" height="16" rx="8" fill="#e2e8f0"/>
    <rect x="24" y="292" width="236" height="16" rx="8" fill="#e2e8f0"/>
  </g>

  <g transform="translate(78 548)">
    <text x="0" y="0" fill="#94a3b8" font-family="Inter, Segoe UI, Arial, sans-serif" font-size="18" font-weight="600">sahirvhora.github.io/sf-pay-transparency</text>
  </g>
  <circle cx="1102" cy="538" r="36" fill="url(#gold)"/>
  <path d="M1087 539 L1098 550 L1118 526" fill="none" stroke="#101820" stroke-width="7" stroke-linecap="round" stroke-linejoin="round"/>
</svg>
